<svg style="max-height: 500px" color-interpolation-filters="sRGB" preserveAspectRatio="xMidYMid meet" viewBox="84.9515 81.453 170 87.997" xmlns:xlink="http://www.w3.org/1999/xlink" xmlns="http://www.w3.org/2000/svg" version="1.0" data-v-0dd9719b="" width="170" height="87.997"> <rect class="background" fill-opacity="0" height="100%" width="100%" y="0" x="0" data-v-0dd9719b=""/> <rect class="watermarklayer" fill-opacity="1" fill="url(#watermark)" height="100%" width="100%" y="0" x="0" data-v-0dd9719b=""/> <g transform="translate(92.13436079025269,90.96227836608887)" class="mojosvg mojo-g" fill="#ff51f9" data-v-0dd9719b="" data-darkreader-inline-fill="" style="--darkreader-inline-fill: #a60da1;"><g><g fill="url(#1fcbc66f-8347-4391-8c3a-42ddf1a4c645)" transform="translate(0,0)" class="tp-name"><g transform="translate(0, 0)"><g transform="translate(0,3)" fill="url(#1fcbc66f-8347-4391-8c3a-42ddf1a4c645)" data-gra="path-name"><g transform="scale(1)"><path transform="translate(-4.050335570469799, 45.808724832214764)" d="M31.49-31.95L31.49-9.07Q31.49-6.79 30.69-5.02Q29.89-3.25 28.41-2.17L28.41-2.17L28.47-2.17Q27.04-1.20 25.44-0.60Q23.85 0 22.36 0L22.36 0L13.18 0Q11.75 0 10.13-0.60Q8.50-1.20 7.07-2.17L7.07-2.17L7.13-2.17Q5.65-3.25 4.85-5.02Q4.05-6.79 4.05-9.07L4.05-9.07L4.05-31.95Q4.05-34.68 7.19-34.68L7.19-34.68Q10.33-34.68 10.33-31.95L10.33-31.95L10.33-9.53Q10.33-7.93 11.12-6.73L11.12-6.73Q11.87-5.36 14.20-5.36L14.20-5.36L21.34-5.36Q23.62-5.36 24.36-6.73L24.36-6.73L24.30-6.67Q25.21-8.04 25.21-9.53L25.21-9.53L25.21-31.95Q25.21-34.68 28.35-34.68L28.35-34.68Q31.49-34.68 31.49-31.95L31.49-31.95Z"/></g></g></g><g transform="translate(33.439597315436245, 0)"><g transform="translate(0,3)" fill="url(#1fcbc66f-8347-4391-8c3a-42ddf1a4c645)" data-gra="path-name"><g transform="scale(1)"><path transform="translate(-4.221476510067114, 45.808724832214764)" d="M10.55-43.13L10.55-2.22Q10.55 0.46 7.42 0.46L7.42 0.46Q4.22 0.46 4.22-2.22L4.22-2.22L4.22-43.13Q4.22-45.81 7.42-45.81L7.42-45.81Q10.55-45.81 10.55-43.13L10.55-43.13Z"/></g></g></g><g transform="translate(45.77181208053691, 0)"><g transform="translate(0,3)" fill="url(#1fcbc66f-8347-4391-8c3a-42ddf1a4c645)" data-gra="path-name"><g transform="scale(1)"><path transform="translate(-4.050335570469799, 45.808724832214764)" d="M10.33-24.82L10.33-2.40Q10.33 0.34 7.19 0.34L7.19 0.34Q4.05 0.34 4.05-2.40L4.05-2.40L4.05-25.33Q4.05-27.67 4.79-29.38Q5.53-31.09 7.13-32.17L7.13-32.17Q10.15-34.34 13.18-34.34L13.18-34.34L22.36-34.34Q25.27-34.34 28.41-32.17L28.41-32.17Q31.49-30.01 31.49-25.33L31.49-25.33L31.49-2.40Q31.49 0.34 28.35 0.34L28.35 0.34Q25.21 0.34 25.21-2.40L25.21-2.40L25.21-24.82Q25.21-26.30 24.30-27.67L24.30-27.67L24.36-27.61Q23.62-28.98 21.34-28.98L21.34-28.98L14.20-28.98Q11.87-28.98 11.12-27.61L11.12-27.61Q10.33-26.41 10.33-24.82L10.33-24.82Z"/></g></g></g><g transform="translate(79.21140939597315, 0)"><g transform="translate(0,3)" fill="url(#1fcbc66f-8347-4391-8c3a-42ddf1a4c645)" data-gra="path-name"><g transform="scale(1)"><path transform="translate(-3.5939597315436242, 45.808724832214764)" d="M12.72-4.68L12.72-4.68Q12.72-2.74 11.41-1.40Q10.10-0.06 8.16-0.06L8.16-0.06Q6.22-0.06 4.91-1.40Q3.59-2.74 3.59-4.68L3.59-4.68Q3.59-6.56 4.91-7.90Q6.22-9.24 8.16-9.24L8.16-9.24Q10.10-9.24 11.41-7.90Q12.72-6.56 12.72-4.68Z"/></g></g></g><g transform="translate(94.33892617449663, 0)"><g transform="translate(0,3)" fill="url(#1fcbc66f-8347-4391-8c3a-42ddf1a4c645)" data-gra="path-name"><g transform="scale(1)"><path transform="translate(-3.7651006711409396, 45.808724832214764)" d="M14.20-19.97L22.59-19.97Q24.02-19.97 25.64-19.31Q27.27-18.65 28.69-17.68L28.69-17.68L28.64-17.68Q30.12-16.60 30.92-14.89Q31.72-13.18 31.72-10.78L31.72-10.78L31.72-9.07Q31.72-4.39 28.64-2.17L28.64-2.17Q27.15-1.03 25.61-0.51Q24.07 0 22.59 0L22.59 0L12.89 0Q11.41 0 9.87-0.51Q8.33-1.03 6.85-2.17L6.85-2.17Q3.77-4.34 3.77-9.07L3.77-9.07L3.77-9.76Q3.77-12.21 6.90-12.15L6.90-12.15Q10.10-12.15 10.10-9.76L10.10-9.76L10.10-9.13Q10.10-7.76 10.95-6.56Q11.81-5.36 13.98-5.36L13.98-5.36L21.51-5.36Q23.67-5.36 24.53-6.56Q25.39-7.76 25.39-9.13L25.39-9.13L25.39-10.72Q25.39-11.47 25.19-12.15Q24.99-12.84 24.53-13.38Q24.07-13.92 23.33-14.26Q22.59-14.60 21.51-14.60L21.51-14.60L13.18-14.60Q10.27-14.60 7.07-16.66L7.07-16.66Q4.05-18.60 4.05-23.33L4.05-23.33L4.05-25.27Q4.05-27.55 4.85-29.29Q5.65-31.03 7.13-32.12L7.13-32.12L7.07-32.12Q8.50-33.09 10.10-33.71Q11.69-34.34 13.18-34.34L13.18-34.34L22.31-34.34Q23.79-34.34 25.36-33.71Q26.93-33.09 28.41-32.12L28.41-32.12L28.35-32.12Q29.84-31.03 30.63-29.29Q31.43-27.55 31.43-25.27L31.43-25.27L31.43-24.76Q31.43-23.56 30.63-23.02Q29.84-22.48 28.30-22.42L28.30-22.42Q25.16-22.36 25.16-24.76L25.16-24.76L25.16-25.21Q25.16-26.64 24.27-27.81Q23.39-28.98 21.28-28.98L21.28-28.98L14.20-28.98Q12.09-28.98 11.21-27.81Q10.33-26.64 10.33-25.21L10.33-25.21L10.33-23.85Q10.33-22.36 11.21-21.16Q12.09-19.97 14.20-19.97L14.20-19.97Z"/></g></g></g><g transform="translate(128.29194630872482, 0)"><g transform="translate(0,3)" fill="url(#1fcbc66f-8347-4391-8c3a-42ddf1a4c645)" data-gra="path-name"><g transform="scale(1)"><path transform="translate(-4.050335570469799, 45.808724832214764)" d="M10.33-28.98L10.33-2.40Q10.33 0.34 7.19 0.34L7.19 0.34Q4.05 0.34 4.05-2.40L4.05-2.40L4.05-42.90Q4.05-45.64 7.19-45.64L7.19-45.64Q10.33-45.64 10.33-42.90L10.33-42.90L10.33-34.34L22.36-34.34Q25.27-34.34 28.41-32.17L28.41-32.17Q31.49-30.01 31.49-25.33L31.49-25.33L31.49-2.40Q31.49 0.34 28.35 0.34L28.35 0.34Q25.21 0.34 25.21-2.40L25.21-2.40L25.21-24.82Q25.21-26.30 24.30-27.67L24.30-27.67L24.36-27.61Q23.62-28.98 21.34-28.98L21.34-28.98L10.33-28.98Z"/></g></g></g></g><g transform="translate(2.3259735107421875,55.26872253417969)" fill="#FF51F9" class="tp-slogan" fill-rule="" data-gra="path-slogan" data-darkreader-inline-fill="" style="--darkreader-inline-fill: #a60da1;"><rect width="0"/> <rect width="0" x="154.0800018310547"/> <g transform="translate(0,0)"><g transform="scale(1)"><path transform="translate(-0.156, 9.708)" d="M3.42-6.10L2.42-6.10L2.42-1.73Q2.42-1.42 2.56-1.25Q2.69-1.08 3.12-1.08L3.12-1.08L3.43-1.08Q3.90-1.08 3.88-0.53L3.88-0.53Q3.88 0.04 3.43 0.04L3.43 0.04L3.04 0.04Q2.65 0.04 2.32-0.07Q1.98-0.17 1.67-0.36L1.67-0.36L1.67-0.35Q1.08-0.73 1.08-1.72L1.08-1.72L1.08-6.10L0.61-6.10Q0.18-6.10 0.16-6.66L0.16-6.66Q0.16-7.22 0.61-7.22L0.61-7.22L1.08-7.22L1.08-8.51Q1.08-9.08 1.76-9.08L1.76-9.08Q2.42-9.08 2.42-8.51L2.42-8.51L2.42-7.22L3.42-7.22Q3.89-7.22 3.86-6.66L3.86-6.66Q3.86-6.10 3.42-6.10L3.42-6.10ZM7.24-5.32L7.24-1.92Q7.24-1.63 7.43-1.38Q7.61-1.13 8.06-1.13L8.06-1.13L9.56-1.13Q10-1.13 10.19-1.35Q10.37-1.57 10.37-1.86L10.37-1.86L10.37-1.99Q10.37-2.56 11.03-2.56L11.03-2.56Q11.69-2.56 11.69-1.99L11.69-1.99L11.69-1.85Q11.69-1.34 11.53-1.02Q11.37-0.70 11.04-0.46L11.04-0.46Q10.41 0 9.77 0L9.77 0L7.76 0Q7.12 0 6.52-0.46L6.52-0.46Q6.23-0.70 6.08-1.06Q5.92-1.43 5.92-1.91L5.92-1.91L5.92-5.33Q5.92-6.30 6.52-6.77L6.52-6.77Q6.82-6.98 7.14-7.11Q7.46-7.24 7.76-7.24L7.76-7.24L9.77-7.24Q10.06-7.24 10.41-7.12Q10.76-7.01 11.06-6.82L11.06-6.82Q11.34-6.61 11.52-6.25Q11.69-5.89 11.69-5.40L11.69-5.40L11.69-3.78Q11.69-3.50 11.53-3.29Q11.37-3.07 10.94-3.07L10.94-3.07L8.34-3.07Q7.91-3.07 7.89-3.64L7.89-3.64Q7.89-4.20 8.34-4.20L8.34-4.20L10.38-4.20L10.37-5.32Q10.37-5.62 10.19-5.86Q10-6.11 9.56-6.11L9.56-6.11L8.06-6.11Q7.61-6.11 7.43-5.86Q7.24-5.62 7.24-5.32L7.24-5.32ZM15.51-5.46L15.51-0.50Q15.51 0.07 14.85 0.07L14.85 0.07Q14.17 0.07 14.17-0.50L14.17-0.50L14.17-5.47Q14.17-6.46 14.76-6.84L14.76-6.84Q15.34-7.22 16.11-7.22L16.11-7.22L17.48-7.22Q17.92-7.22 17.92-6.66L17.92-6.66Q17.95-6.10 17.48-6.10L17.48-6.10L16.21-6.10Q15.78-6.10 15.64-5.93Q15.51-5.76 15.51-5.46L15.51-5.46ZM23.66-0.47L23.66-5.22Q23.66-5.38 23.62-5.53Q23.57-5.68 23.50-5.81L23.50-5.81Q23.34-6.10 22.85-6.10L22.85-6.10L22.08-6.10Q21.59-6.10 21.42-5.81L21.42-5.81Q21.28-5.53 21.28-5.22L21.28-5.22L21.28-0.47Q21.28 0.10 20.62 0.10L20.62 0.10Q19.93 0.10 19.93-0.47L19.93-0.47L19.93-5.33Q19.93-6.31 20.58-6.77L20.58-6.77Q21.24-7.22 21.86-7.22L21.86-7.22L23.08-7.22Q23.35-7.22 23.69-7.12Q24.02-7.01 24.34-6.78L24.34-6.78Q24.64-7.01 24.97-7.12Q25.30-7.22 25.60-7.22L25.60-7.22L26.80-7.22Q27.43-7.22 28.07-6.77L28.07-6.77Q28.73-6.32 28.73-5.33L28.73-5.33L28.73-0.47Q28.73 0.10 28.06 0.10L28.06 0.10Q27.38 0.10 27.38-0.47L27.38-0.47L27.38-5.22Q27.38-5.38 27.35-5.53Q27.31-5.69 27.22-5.82L27.22-5.82L27.23-5.81Q27.13-5.96 26.99-6.03Q26.84-6.10 26.57-6.10L26.57-6.10L25.81-6.10Q25.31-6.10 25.15-5.81L25.15-5.81Q25.00-5.54 25.00-5.22L25.00-5.22L25.00-0.47Q25.00 0.10 24.34 0.10L24.34 0.10Q23.66 0.10 23.66-0.47L23.66-0.47ZM32.55-6.70L32.55-0.50Q32.55 0.07 31.89 0.07L31.89 0.07Q31.22 0.07 31.22-0.50L31.22-0.50L31.22-6.70Q31.22-7.27 31.89-7.27L31.89-7.27Q32.55-7.27 32.55-6.70L32.55-6.70ZM32.80-8.78L32.80-8.78Q32.80-8.40 32.54-8.14Q32.27-7.87 31.89-7.87L31.89-7.87Q31.50-7.87 31.23-8.14Q30.96-8.40 30.96-8.78L30.96-8.78Q30.96-9.18 31.23-9.44Q31.50-9.71 31.89-9.71L31.89-9.71Q32.27-9.71 32.54-9.44Q32.80-9.18 32.80-8.78ZM36.54-5.22L36.54-0.50Q36.54 0.07 35.88 0.07L35.88 0.07Q35.22 0.07 35.22-0.50L35.22-0.50L35.22-5.33Q35.22-5.82 35.37-6.18Q35.53-6.54 35.86-6.77L35.86-6.77Q36.50-7.22 37.14-7.22L37.14-7.22L39.07-7.22Q39.68-7.22 40.34-6.77L40.34-6.77Q40.99-6.31 40.99-5.33L40.99-5.33L40.99-0.50Q40.99 0.07 40.33 0.07L40.33 0.07Q39.67 0.07 39.67-0.50L39.67-0.50L39.67-5.22Q39.67-5.53 39.48-5.82L39.48-5.82L39.49-5.81Q39.33-6.10 38.85-6.10L38.85-6.10L37.35-6.10Q36.86-6.10 36.70-5.81L36.70-5.81Q36.54-5.56 36.54-5.22L36.54-5.22ZM46.92 0L45.35 0Q44.98 0 44.64-0.10Q44.30-0.20 43.99-0.40L43.99-0.40L43.99-0.38Q43.40-0.76 43.40-1.75L43.40-1.75L43.40-2.34Q43.40-2.83 43.58-3.20Q43.75-3.56 44.06-3.78L44.06-3.78L44.05-3.78Q44.35-3.98 44.69-4.09Q45.02-4.19 45.34-4.19L45.34-4.19L47.99-4.19L47.99-5.30Q47.99-5.60 47.80-5.85Q47.62-6.10 47.17-6.10L47.17-6.10L45.77-6.10Q45.31-6.10 45.14-5.87Q44.96-5.65 44.96-5.35L44.96-5.35L44.96-5.26Q44.96-4.63 44.29-4.63L44.29-4.63Q43.62-4.63 43.62-5.26L43.62-5.26L43.62-5.36Q43.62-5.86 43.79-6.19Q43.97-6.53 44.27-6.76L44.27-6.76L44.26-6.76Q44.57-6.96 44.91-7.09Q45.25-7.22 45.56-7.22L45.56-7.22L47.39-7.22Q47.69-7.22 48.03-7.09Q48.37-6.96 48.67-6.76L48.67-6.76L48.66-6.76Q48.97-6.53 49.14-6.16Q49.31-5.80 49.31-5.32L49.31-5.32L49.31-0.50Q49.31 0.07 48.65 0.07L48.65 0.07Q48.52 0.07 48.40 0.06Q48.29 0.05 48.20-0.01Q48.11-0.06 48.05-0.16Q48-0.26 48-0.43L48-0.43L47.99-3.06L45.56-3.06Q45.30-3.06 45.16-3Q45.01-2.94 44.93-2.81L44.93-2.81Q44.83-2.60 44.79-2.49Q44.75-2.38 44.75-2.23L44.75-2.23L44.75-1.76Q44.75-1.45 44.93-1.29Q45.12-1.13 45.58-1.13L45.58-1.13L46.92-1.13Q47.36-1.13 47.36-0.56L47.36-0.56Q47.36-0.32 47.26-0.16Q47.15 0 46.92 0L46.92 0ZM53.22-9.07L53.22-0.47Q53.22 0.10 52.56 0.10L52.56 0.10Q51.89 0.10 51.89-0.47L51.89-0.47L51.89-9.07Q51.89-9.64 52.56-9.64L52.56-9.64Q53.22-9.64 53.22-9.07L53.22-9.07ZM64.20-0.47L64.20-5.22Q64.20-5.38 64.15-5.53Q64.10-5.68 64.03-5.81L64.03-5.81Q63.88-6.10 63.38-6.10L63.38-6.10L62.62-6.10Q62.12-6.10 61.96-5.81L61.96-5.81Q61.81-5.53 61.81-5.22L61.81-5.22L61.81-0.47Q61.81 0.10 61.15 0.10L61.15 0.10Q60.47 0.10 60.47-0.47L60.47-0.47L60.47-5.33Q60.47-6.31 61.12-6.77L61.12-6.77Q61.78-7.22 62.40-7.22L62.40-7.22L63.61-7.22Q63.89-7.22 64.22-7.12Q64.56-7.01 64.87-6.78L64.87-6.78Q65.17-7.01 65.50-7.12Q65.83-7.22 66.13-7.22L66.13-7.22L67.33-7.22Q67.97-7.22 68.60-6.77L68.60-6.77Q69.26-6.32 69.26-5.33L69.26-5.33L69.26-0.47Q69.26 0.10 68.59 0.10L68.59 0.10Q67.92 0.10 67.92-0.47L67.92-0.47L67.92-5.22Q67.92-5.38 67.88-5.53Q67.85-5.69 67.75-5.82L67.75-5.82L67.76-5.81Q67.67-5.96 67.52-6.03Q67.38-6.10 67.10-6.10L67.10-6.10L66.35-6.10Q65.84-6.10 65.69-5.81L65.69-5.81Q65.53-5.54 65.53-5.22L65.53-5.22L65.53-0.47Q65.53 0.10 64.87 0.10L64.87 0.10Q64.20 0.10 64.20-0.47L64.20-0.47ZM73.08-6.70L73.08-0.50Q73.08 0.07 72.42 0.07L72.42 0.07Q71.75 0.07 71.75-0.50L71.75-0.50L71.75-6.70Q71.75-7.27 72.42-7.27L72.42-7.27Q73.08-7.27 73.08-6.70L73.08-6.70ZM73.34-8.78L73.34-8.78Q73.34-8.40 73.07-8.14Q72.81-7.87 72.42-7.87L72.42-7.87Q72.04-7.87 71.77-8.14Q71.50-8.40 71.50-8.78L71.50-8.78Q71.50-9.18 71.77-9.44Q72.04-9.71 72.42-9.71L72.42-9.71Q72.81-9.71 73.07-9.44Q73.34-9.18 73.34-8.78ZM81.52-2.47L81.52-1.91Q81.52-0.92 80.88-0.46L80.88-0.46Q80.24 0 79.60 0L79.60 0L77.59 0Q76.95 0 76.35-0.46L76.35-0.46Q76.06-0.70 75.91-1.06Q75.75-1.43 75.75-1.91L75.75-1.91L75.75-5.33Q75.75-6.30 76.35-6.77L76.35-6.77Q76.65-6.98 76.97-7.11Q77.29-7.24 77.59-7.24L77.59-7.24L79.60-7.24Q79.89-7.24 80.24-7.12Q80.59-7.01 80.89-6.82L80.89-6.82Q81.18-6.61 81.35-6.25Q81.52-5.89 81.52-5.40L81.52-5.40L81.52-4.80Q81.52-4.22 80.86-4.22L80.86-4.22Q80.20-4.22 80.20-4.80L80.20-4.80L80.20-5.32Q80.20-5.62 80.02-5.86Q79.83-6.11 79.39-6.11L79.39-6.11L77.89-6.11Q77.44-6.11 77.26-5.86Q77.07-5.62 77.07-5.32L77.07-5.32L77.07-1.92Q77.07-1.63 77.26-1.38Q77.44-1.13 77.89-1.13L77.89-1.13L79.39-1.13Q79.83-1.13 80.02-1.38Q80.20-1.63 80.20-1.92L80.20-1.92L80.20-2.47Q80.20-3.04 80.86-3.04L80.86-3.04Q81.52-3.04 81.52-2.47L81.52-2.47ZM85.32-5.46L85.32-0.50Q85.32 0.07 84.66 0.07L84.66 0.07Q83.98 0.07 83.98-0.50L83.98-0.50L83.98-5.47Q83.98-6.46 84.56-6.84L84.56-6.84Q85.15-7.22 85.92-7.22L85.92-7.22L87.29-7.22Q87.73-7.22 87.73-6.66L87.73-6.66Q87.76-6.10 87.29-6.10L87.29-6.10L86.02-6.10Q85.58-6.10 85.45-5.93Q85.32-5.76 85.32-5.46L85.32-5.46ZM91.67-7.22L93.59-7.22Q93.90-7.22 94.23-7.09Q94.56-6.96 94.88-6.76L94.88-6.76L94.86-6.76Q95.18-6.53 95.34-6.16Q95.51-5.80 95.51-5.32L95.51-5.32L95.51-1.91Q95.51-0.92 94.86-0.46L94.86-0.46Q94.23 0 93.59 0L93.59 0L91.67 0Q91.36 0 91.04-0.11Q90.71-0.22 90.40-0.46L90.40-0.46Q89.75-0.91 89.75-1.91L89.75-1.91L89.75-5.32Q89.75-5.80 89.92-6.16Q90.09-6.53 90.40-6.76L90.40-6.76L90.39-6.76Q90.69-6.96 91.02-7.09Q91.36-7.22 91.67-7.22L91.67-7.22ZM91.89-1.13L93.38-1.13Q93.82-1.13 94.01-1.38Q94.19-1.63 94.19-1.92L94.19-1.92L94.19-5.30Q94.19-5.60 94.01-5.85Q93.82-6.10 93.38-6.10L93.38-6.10L91.89-6.10Q91.44-6.10 91.26-5.85Q91.07-5.60 91.07-5.30L91.07-5.30L91.07-1.92Q91.07-1.63 91.26-1.38Q91.44-1.13 91.89-1.13L91.89-1.13ZM108.40-6.72L108.40-1.91Q108.40-1.43 108.23-1.06Q108.06-0.68 107.75-0.46L107.75-0.46L107.76-0.46Q107.46-0.25 107.12-0.13Q106.79 0 106.48 0L106.48 0L104.54 0Q104.24 0 103.90-0.13Q103.56-0.25 103.26-0.46L103.26-0.46L103.27-0.46Q102.96-0.68 102.79-1.06Q102.62-1.43 102.62-1.91L102.62-1.91L102.62-6.72Q102.62-7.30 103.28-7.30L103.28-7.30Q103.94-7.30 103.94-6.72L103.94-6.72L103.94-2.00Q103.94-1.67 104.11-1.42L104.11-1.42Q104.27-1.13 104.76-1.13L104.76-1.13L106.26-1.13Q106.74-1.13 106.90-1.42L106.90-1.42L106.88-1.40Q107.08-1.69 107.08-2.00L107.08-2.00L107.08-6.72Q107.08-7.30 107.74-7.30L107.74-7.30Q108.40-7.30 108.40-6.72L108.40-6.72ZM113.46-6.10L112.47-6.10L112.47-1.73Q112.47-1.42 112.60-1.25Q112.73-1.08 113.16-1.08L113.16-1.08L113.48-1.08Q113.94-1.08 113.92-0.53L113.92-0.53Q113.92 0.04 113.48 0.04L113.48 0.04L113.08 0.04Q112.70 0.04 112.36-0.07Q112.02-0.17 111.71-0.36L111.71-0.36L111.71-0.35Q111.12-0.73 111.12-1.72L111.12-1.72L111.12-6.10L110.66-6.10Q110.22-6.10 110.20-6.66L110.20-6.66Q110.20-7.22 110.66-7.22L110.66-7.22L111.12-7.22L111.12-8.51Q111.12-9.08 111.81-9.08L111.81-9.08Q112.47-9.08 112.47-8.51L112.47-8.51L112.47-7.22L113.46-7.22Q113.93-7.22 113.91-6.66L113.91-6.66Q113.91-6.10 113.46-6.10L113.46-6.10ZM117.32-6.70L117.32-0.50Q117.32 0.07 116.66 0.07L116.66 0.07Q115.99 0.07 115.99-0.50L115.99-0.50L115.99-6.70Q115.99-7.27 116.66-7.27L116.66-7.27Q117.32-7.27 117.32-6.70L117.32-6.70ZM117.57-8.78L117.57-8.78Q117.57-8.40 117.31-8.14Q117.04-7.87 116.66-7.87L116.66-7.87Q116.28-7.87 116.01-8.14Q115.74-8.40 115.74-8.78L115.74-8.78Q115.74-9.18 116.01-9.44Q116.28-9.71 116.66-9.71L116.66-9.71Q117.04-9.71 117.31-9.44Q117.57-9.18 117.57-8.78ZM121.36-9.07L121.36-0.47Q121.36 0.10 120.70 0.10L120.70 0.10Q120.02 0.10 120.02-0.47L120.02-0.47L120.02-9.07Q120.02-9.64 120.70-9.64L120.70-9.64Q121.36-9.64 121.36-9.07L121.36-9.07ZM125.37-6.70L125.37-0.50Q125.37 0.07 124.71 0.07L124.71 0.07Q124.04 0.07 124.04-0.50L124.04-0.50L124.04-6.70Q124.04-7.27 124.71-7.27L124.71-7.27Q125.37-7.27 125.37-6.70L125.37-6.70ZM125.62-8.78L125.62-8.78Q125.62-8.40 125.36-8.14Q125.09-7.87 124.71-7.87L124.71-7.87Q124.32-7.87 124.05-8.14Q123.78-8.40 123.78-8.78L123.78-8.78Q123.78-9.18 124.05-9.44Q124.32-9.71 124.71-9.71L124.71-9.71Q125.09-9.71 125.36-9.44Q125.62-9.18 125.62-8.78ZM130.60-6.10L129.61-6.10L129.61-1.73Q129.61-1.42 129.74-1.25Q129.87-1.08 130.30-1.08L130.30-1.08L130.62-1.08Q131.08-1.08 131.06-0.53L131.06-0.53Q131.06 0.04 130.62 0.04L130.62 0.04L130.22 0.04Q129.84 0.04 129.50-0.07Q129.16-0.17 128.85-0.36L128.85-0.36L128.85-0.35Q128.26-0.73 128.26-1.72L128.26-1.72L128.26-6.10L127.80-6.10Q127.36-6.10 127.34-6.66L127.34-6.66Q127.34-7.22 127.80-7.22L127.80-7.22L128.26-7.22L128.26-8.51Q128.26-9.08 128.95-9.08L128.95-9.08Q129.61-9.08 129.61-8.51L129.61-8.51L129.61-7.22L130.60-7.22Q131.07-7.22 131.05-6.66L131.05-6.66Q131.05-6.10 130.60-6.10L130.60-6.10ZM134.46-6.70L134.46-0.50Q134.46 0.07 133.80 0.07L133.80 0.07Q133.13 0.07 133.13-0.50L133.13-0.50L133.13-6.70Q133.13-7.27 133.80-7.27L133.80-7.27Q134.46-7.27 134.46-6.70L134.46-6.70ZM134.71-8.78L134.71-8.78Q134.71-8.40 134.45-8.14Q134.18-7.87 133.80-7.87L133.80-7.87Q133.42-7.87 133.15-8.14Q132.88-8.40 132.88-8.78L132.88-8.78Q132.88-9.18 133.15-9.44Q133.42-9.71 133.80-9.71L133.80-9.71Q134.18-9.71 134.45-9.44Q134.71-9.18 134.71-8.78ZM138.45-5.32L138.45-1.92Q138.45-1.63 138.63-1.38Q138.82-1.13 139.26-1.13L139.26-1.13L140.76-1.13Q141.21-1.13 141.39-1.35Q141.58-1.57 141.58-1.86L141.58-1.86L141.58-1.99Q141.58-2.56 142.24-2.56L142.24-2.56Q142.90-2.56 142.90-1.99L142.90-1.99L142.90-1.85Q142.90-1.34 142.74-1.02Q142.58-0.70 142.25-0.46L142.25-0.46Q141.62 0 140.98 0L140.98 0L138.96 0Q138.33 0 137.73-0.46L137.73-0.46Q137.44-0.70 137.28-1.06Q137.13-1.43 137.13-1.91L137.13-1.91L137.13-5.33Q137.13-6.30 137.73-6.77L137.73-6.77Q138.03-6.98 138.35-7.11Q138.66-7.24 138.96-7.24L138.96-7.24L140.98-7.24Q141.27-7.24 141.62-7.12Q141.96-7.01 142.26-6.82L142.26-6.82Q142.55-6.61 142.73-6.25Q142.90-5.89 142.90-5.40L142.90-5.40L142.90-3.78Q142.90-3.50 142.74-3.29Q142.58-3.07 142.14-3.07L142.14-3.07L139.55-3.07Q139.12-3.07 139.10-3.64L139.10-3.64Q139.10-4.20 139.55-4.20L139.55-4.20L141.59-4.20L141.58-5.32Q141.58-5.62 141.39-5.86Q141.21-6.11 140.76-6.11L140.76-6.11L139.26-6.11Q138.82-6.11 138.63-5.86Q138.45-5.62 138.45-5.32L138.45-5.32ZM147.56-4.20L149.32-4.20Q149.62-4.20 149.97-4.06Q150.31-3.92 150.61-3.72L150.61-3.72L150.60-3.72Q150.91-3.49 151.08-3.13Q151.24-2.77 151.24-2.27L151.24-2.27L151.24-1.91Q151.24-0.92 150.60-0.46L150.60-0.46Q150.28-0.22 149.96-0.11Q149.64 0 149.32 0L149.32 0L147.28 0Q146.97 0 146.65-0.11Q146.32-0.22 146.01-0.46L146.01-0.46Q145.36-0.91 145.36-1.91L145.36-1.91L145.36-2.05Q145.36-2.57 146.02-2.56L146.02-2.56Q146.70-2.56 146.70-2.05L146.70-2.05L146.70-1.92Q146.70-1.63 146.88-1.38Q147.06-1.13 147.51-1.13L147.51-1.13L149.10-1.13Q149.55-1.13 149.73-1.38Q149.91-1.63 149.91-1.92L149.91-1.92L149.91-2.26Q149.91-2.41 149.87-2.56Q149.83-2.70 149.73-2.81Q149.64-2.93 149.48-3Q149.32-3.07 149.10-3.07L149.10-3.07L147.34-3.07Q146.73-3.07 146.06-3.50L146.06-3.50Q145.42-3.91 145.42-4.91L145.42-4.91L145.42-5.32Q145.42-5.80 145.59-6.16Q145.76-6.53 146.07-6.76L146.07-6.76L146.06-6.76Q146.36-6.96 146.70-7.09Q147.03-7.22 147.34-7.22L147.34-7.22L149.26-7.22Q149.58-7.22 149.91-7.09Q150.24-6.96 150.55-6.76L150.55-6.76L150.54-6.76Q150.85-6.53 151.02-6.16Q151.18-5.80 151.18-5.32L151.18-5.32L151.18-5.21Q151.18-4.96 151.02-4.84Q150.85-4.73 150.52-4.72L150.52-4.72Q149.86-4.70 149.86-5.21L149.86-5.21L149.86-5.30Q149.86-5.60 149.68-5.85Q149.49-6.10 149.05-6.10L149.05-6.10L147.56-6.10Q147.12-6.10 146.93-5.85Q146.74-5.60 146.74-5.30L146.74-5.30L146.74-5.02Q146.74-4.70 146.93-4.45Q147.12-4.20 147.56-4.20L147.56-4.20Z"/></g></g></g></g></g><defs><linearGradient id="1fcbc66f-8347-4391-8c3a-42ddf1a4c645" y2="0" x2="0" y1="1" x1="0"><stop stop-color="#ff51f9" offset="0%" data-darkreader-inline-stopcolor="" style="--darkreader-inline-stopcolor: #a60da1;"/><stop stop-color="#a348ff" offset="50%" data-darkreader-inline-stopcolor="" style="--darkreader-inline-stopcolor: #5c0dac;"/><stop stop-color="#3978ff" offset="100%" data-darkreader-inline-stopcolor="" style="--darkreader-inline-stopcolor: #0d42b5;"/></linearGradient><filter filterUnits="objectBoundingBox" id="42443b3f1de60f6b6fd3b6a9844b4764"><feColorMatrix values="0 0 0 0 0.99609375  0 0 0 0 0.99609375  0 0 0 0 0.99609375  0 0 0 1 0" type="matrix"/></filter></defs></svg>